<svg xmlns="http://www.w3.org/2000/svg" width="186" height="50" viewBox="0 0 186 50" fill="none">
  <path d="M23.5042 12.2891C21.7372 11.4063 19.8663 12.1273 19.3827 13.8765C18.899 12.1273 17.0282 11.4048 15.2612 12.2891C13.2449 13.2979 13.0239 15.9981 14.3295 18.0322C15.6262 20.0514 19.3827 21.8718 19.3827 21.8718C19.3827 21.8718 23.1392 20.0529 24.4359 18.0322C25.7415 15.9981 25.5219 13.2964 23.5042 12.2891Z" fill="#36B0C9"/>
  <path fill-rule="evenodd" clip-rule="evenodd" d="M19.8115 15.4655C19.8115 15.3483 19.8085 15.2311 19.8115 15.1124C19.8145 15.0263 19.8263 14.9418 19.8545 14.8602C19.8783 14.789 19.9302 14.7504 19.9984 14.7445C20.1127 14.7355 20.2269 14.7163 20.3412 14.7252C20.3768 14.7281 20.4138 14.7281 20.4495 14.737C20.5474 14.7608 20.6067 14.7044 20.5934 14.6213C20.5889 14.5931 20.5874 14.562 20.5978 14.5367C20.6171 14.4848 20.6008 14.4566 20.5548 14.4284C20.402 14.332 20.3174 14.1985 20.3055 14.0115C20.2996 13.9181 20.2981 13.8305 20.3263 13.743C20.353 13.6584 20.3412 13.5724 20.3412 13.4863C20.3412 13.4166 20.3382 13.3469 20.3664 13.2786C20.3901 13.2237 20.4198 13.1792 20.4673 13.1436C20.5474 13.0828 20.6319 13.0264 20.6957 12.9433C20.7313 12.8959 20.7862 12.8751 20.8471 12.8766C21.0014 12.881 21.1527 12.8528 21.3025 12.8246C21.3337 12.8187 21.3649 12.8143 21.396 12.8143C21.4227 12.8143 21.4464 12.8098 21.4702 12.7935C21.4939 12.7757 21.5206 12.7683 21.5503 12.7653C21.6096 12.7594 21.6245 12.7416 21.6275 12.6807C21.6289 12.654 21.6304 12.6288 21.6364 12.6036C21.6482 12.5457 21.6438 12.5353 21.5889 12.5146C21.491 12.4775 21.3901 12.4567 21.2877 12.4374C21.1141 12.4063 20.9598 12.4715 20.807 12.5353C20.7106 12.5769 20.6186 12.6229 20.5162 12.6496C20.448 12.6674 20.3857 12.7015 20.3263 12.7416C20.2803 12.7727 20.2343 12.8009 20.1839 12.8232C20.0281 12.8899 19.9094 12.8246 19.8694 12.6733C19.8219 12.4923 19.8827 12.3172 20.0326 12.203C20.0889 12.16 20.1409 12.1125 20.1898 12.0621C20.2492 12.0027 20.3189 11.9582 20.3871 11.9093C20.5385 11.8009 20.6987 11.7119 20.8723 11.6437C20.9198 11.6244 20.9658 11.5962 21.0088 11.5665C21.1438 11.476 21.2951 11.4464 21.4524 11.4345C21.5963 11.4241 21.7387 11.4375 21.8782 11.4731C21.9182 11.4835 21.9613 11.4835 22.0013 11.4894C22.0829 11.5013 22.1497 11.5354 22.2105 11.5858C22.2506 11.6199 22.2966 11.6422 22.35 11.6526C22.4138 11.6659 22.4776 11.6823 22.5369 11.709C22.5636 11.7208 22.5859 11.7223 22.6052 11.6971C22.6526 11.6363 22.7194 11.6096 22.7906 11.5888C22.8173 11.5799 22.847 11.574 22.8707 11.5591C22.9657 11.4998 23.0695 11.4894 23.1793 11.4909C23.2669 11.4924 23.3559 11.4775 23.4419 11.4553C23.522 11.4345 23.5888 11.39 23.6526 11.3395C23.752 11.2609 23.8529 11.1808 23.9612 11.1125C24.0621 11.1734 24.1496 11.252 24.2386 11.3277C25.1807 12.1288 25.8454 13.1184 26.243 14.289C26.2593 14.335 26.2653 14.3854 26.2934 14.4284C26.3409 14.4922 26.3469 14.5694 26.3587 14.6451C26.3602 14.7163 26.3884 14.783 26.4017 14.8513C26.4255 14.9685 26.4596 15.0842 26.47 15.2044C26.378 15.3483 26.2653 15.4729 26.1391 15.5871C25.93 15.7771 25.6911 15.9284 25.4893 16.1272C25.4137 16.2014 25.3157 16.2221 25.2059 16.2088C25.0709 16.1925 24.9359 16.1851 24.8069 16.2444C24.7386 16.2756 24.6644 16.2993 24.5873 16.2934C24.4834 16.2845 24.4152 16.3364 24.3751 16.4224C24.3098 16.5574 24.2208 16.6732 24.1229 16.7874C24.028 16.8957 23.982 17.0366 23.9226 17.1672C23.8885 17.2414 23.8603 17.3171 23.8277 17.3912C23.7713 17.5203 23.6838 17.6197 23.5532 17.6776C23.4122 17.7399 23.2669 17.6998 23.1956 17.5633C23.0206 17.2325 22.8989 16.8853 22.8945 16.504C22.893 16.4358 22.9004 16.3675 22.887 16.3008C22.8692 16.2088 22.844 16.185 22.7506 16.185C22.6348 16.1865 22.5221 16.1702 22.4078 16.1554C22.2995 16.142 22.2061 16.1005 22.1349 16.0159C22.0814 15.9536 22.0191 15.9284 21.936 15.9313C21.7758 15.9358 21.718 15.8898 21.6705 15.7355C21.6527 15.6776 21.6453 15.6183 21.6364 15.559C21.62 15.4373 21.5904 15.4136 21.4672 15.4195C21.4568 15.4195 21.4465 15.421 21.4361 15.4195C21.2833 15.3824 21.129 15.4195 20.9776 15.4269C20.7625 15.4373 20.5474 15.4551 20.3308 15.464C20.1928 15.4699 20.0563 15.4907 19.9183 15.4818C19.8797 15.4863 19.8427 15.4937 19.8115 15.4655Z" fill="#93D500"/>
  <path fill-rule="evenodd" clip-rule="evenodd" d="M16.5431 11.1184C16.5713 11.2519 16.601 11.3855 16.6292 11.519C16.6633 11.6866 16.6841 11.8558 16.6663 12.0249C16.6514 12.1703 16.6084 12.3112 16.5431 12.4448C16.5298 12.4715 16.5224 12.4997 16.506 12.5234C16.4408 12.6169 16.4304 12.7192 16.4363 12.8261C16.4408 12.9166 16.4051 13.0011 16.3562 13.0768C16.3235 13.1272 16.2865 13.1792 16.239 13.2192C16.1782 13.2711 16.1544 13.3364 16.144 13.4106C16.1292 13.5174 16.1084 13.6228 16.0669 13.7236C16.0253 13.8275 15.9571 13.9136 15.8651 13.9818C15.7598 14.0604 15.6352 14.0767 15.5061 14.0619C15.3785 14.0486 15.2494 14.0397 15.1263 14.007C15.0936 13.9981 15.0625 13.9892 15.0298 13.9803C14.9126 13.9462 14.8696 13.9625 14.8147 14.0678C14.7672 14.1583 14.7465 14.2578 14.7168 14.3542C14.6886 14.4462 14.6678 14.5396 14.6115 14.6227C14.558 14.7028 14.4868 14.7622 14.3963 14.8022C14.3132 14.8393 14.2287 14.8749 14.153 14.9269C14.1041 14.961 14.0937 14.9981 14.1011 15.05C14.1159 15.1568 14.1426 15.2607 14.1738 15.3645C14.199 15.4476 14.1946 15.5292 14.1634 15.6108C14.1293 15.7013 14.0966 15.7918 14.0506 15.8779C14.0106 15.9506 13.9438 15.9862 13.8578 15.9891C13.7777 15.9921 13.6975 15.9862 13.6219 15.961C13.5151 15.9268 13.4364 15.8586 13.383 15.7666C13.3533 15.7162 13.3281 15.6642 13.3029 15.6108C13.2539 15.5084 13.2035 15.4046 13.1323 15.3126C13.0106 15.1568 12.9142 14.9877 12.8074 14.823C12.843 14.6969 12.5373 14.0842 12.5908 13.9655C12.9587 13.1554 13.1471 12.7875 13.8415 12.1926C14.1219 11.9522 14.785 11.5887 15.104 11.3914C15.4482 11.1778 16.1307 11.2668 16.5149 11.1199C16.5238 11.1214 16.5342 11.1199 16.5431 11.1184Z" fill="#93D500"/>
  <path fill-rule="evenodd" clip-rule="evenodd" d="M22.8054 20.5246C22.7001 20.4534 22.5992 20.3762 22.5132 20.2813C22.3544 20.1077 22.3158 19.9089 22.3811 19.6863C22.436 19.4994 22.5488 19.3525 22.7016 19.2353C22.8129 19.1493 22.9241 19.0617 23.0413 18.9861C23.2149 18.8733 23.4018 18.8006 23.6051 18.7665C23.8202 18.7309 24.0354 18.7264 24.252 18.7413C24.3662 18.7487 24.4804 18.7472 24.5947 18.7413C24.6303 18.7398 24.6674 18.7338 24.703 18.7442C24.5561 18.9638 24.387 19.1656 24.2104 19.3614C23.8158 19.7976 23.3692 20.173 22.8722 20.4875C22.8514 20.5008 22.8321 20.5186 22.8054 20.5246Z" fill="#93D500"/>
  <path fill-rule="evenodd" clip-rule="evenodd" d="M14.5965 17.731C14.5342 17.7132 14.4704 17.6998 14.4051 17.688C14.3591 17.6806 14.3132 17.6717 14.2686 17.6539C14.236 17.6405 14.2138 17.6182 14.1989 17.5841C14.1707 17.5159 14.1589 17.4447 14.1529 17.372C14.147 17.2963 14.15 17.2206 14.1351 17.1464C14.1054 16.9981 14.0387 16.8809 13.8874 16.8201C13.7167 16.7533 13.5402 16.7296 13.3592 16.7207C13.3265 16.7192 13.2998 16.7103 13.2717 16.6954C13.1455 16.6287 13.0417 16.5352 12.9482 16.4284C12.8013 16.2607 12.6411 16.1094 12.466 15.9714C12.4112 15.9284 12.3592 15.8809 12.3058 15.8349C12.2999 15.832 12.2954 15.8334 12.2939 15.8409C12.3355 16.0708 12.377 16.3008 12.4393 16.5278C12.4839 16.688 12.5254 16.8497 12.5877 17.004C12.6649 17.2355 12.7568 17.461 12.8622 17.6806C12.8948 17.7473 12.92 17.82 12.966 17.8794C13.0476 18.0144 13.1277 18.1494 13.2123 18.2829C13.3636 18.5218 13.5239 18.7547 13.69 18.9847C13.7004 18.9995 13.7093 19.0158 13.7212 19.0292C13.9022 19.2517 14.0995 19.4609 14.3102 19.6553C14.4096 19.7472 14.5075 19.8407 14.6173 19.9193C14.6084 19.9001 14.6039 19.8778 14.5906 19.863C14.5342 19.7962 14.5313 19.7205 14.5461 19.6419C14.555 19.5989 14.5654 19.5558 14.5832 19.5143C14.6158 19.4372 14.6559 19.3645 14.6915 19.2903C14.8087 19.0485 14.8562 18.7873 14.8933 18.5233C14.9125 18.3838 14.9096 18.2443 14.9096 18.1049C14.9066 18.1004 14.9036 18.096 14.9007 18.09C14.8843 17.9016 14.779 17.7844 14.5965 17.731Z" fill="#93D500"/>
  <path fill-rule="evenodd" clip-rule="evenodd" d="M19.1201 13.016C18.7433 13.0368 18.3828 12.9641 18.0356 12.8231C17.8472 12.746 17.6884 12.6258 17.5579 12.467C17.4985 12.3944 17.4258 12.3424 17.3264 12.335C17.2819 12.332 17.2389 12.3202 17.1974 12.3068C17.0742 12.2668 17.006 12.1763 16.9941 12.0472C16.9793 11.8973 17.0386 11.7742 17.1172 11.654C17.1796 11.5591 17.2582 11.479 17.3309 11.3959C17.4496 11.4567 17.5564 11.5353 17.6647 11.611C17.9258 11.7965 18.1751 11.9982 18.408 12.2193C18.6498 12.4492 18.8739 12.6955 19.0801 12.9581C19.0964 12.9759 19.1068 12.9967 19.1201 13.016Z" fill="#93D500"/>
  <path fill-rule="evenodd" clip-rule="evenodd" d="M20.1453 19.6003C20.0993 19.4965 20.04 19.403 19.9673 19.3169C19.8753 19.2071 19.8085 19.0899 19.7892 18.9431C19.7744 18.8318 19.7937 18.725 19.8026 18.6167C19.8159 18.4401 19.8233 18.2636 19.7952 18.087C19.7788 17.9846 19.7551 17.8823 19.6913 17.7962C19.675 17.7755 19.6735 17.7473 19.6661 17.7235C19.632 17.6108 19.6097 17.495 19.4999 17.4194C19.4376 17.3749 19.3842 17.314 19.3382 17.2502C19.3308 17.2399 19.3189 17.2339 19.3085 17.225C19.2714 17.2043 19.2432 17.2324 19.2136 17.2428C18.856 17.3749 18.5044 17.3734 18.1617 17.1939C17.9569 17.0871 17.8086 16.9209 17.6765 16.7369C17.6573 16.7102 17.6454 16.6746 17.6038 16.6746C17.5964 16.6716 17.589 16.6687 17.5816 16.6672C17.4436 16.6449 17.3056 16.6153 17.1662 16.6034C17.0445 16.593 16.9214 16.5871 16.7997 16.6093C16.6098 16.6434 16.4496 16.7384 16.3012 16.8556C16.1484 16.9758 16.0297 17.1212 15.9526 17.3007C15.8977 17.4313 15.8621 17.5663 15.8324 17.7042C15.8057 17.8259 15.7938 17.9505 15.7805 18.0751C15.7642 18.2131 15.7567 18.3511 15.7953 18.4861C15.8903 18.8095 16.0742 19.0707 16.3443 19.2709C16.4362 19.3392 16.5253 19.4104 16.598 19.5009C16.6988 19.6285 16.8101 19.7442 16.9511 19.8288C16.9956 19.8555 17.0475 19.8703 17.0861 19.9059C17.1143 19.9089 17.1365 19.9282 17.1632 19.9386C17.276 20.0187 17.3368 20.1359 17.3813 20.2635C17.4406 20.4326 17.5 20.6032 17.5579 20.7724C17.589 20.8644 17.6053 20.9578 17.6024 21.0557C17.5994 21.1967 17.6024 21.3376 17.6009 21.4786C17.6009 21.6165 17.6202 21.753 17.6498 21.888C17.6958 22.0987 17.7685 22.299 17.8976 22.4741C17.9748 22.5779 18.0712 22.6581 18.2062 22.664C18.4451 22.6744 18.6543 22.5957 18.8382 22.4414C18.9109 22.3806 18.9717 22.3094 19.0355 22.2412C19.1112 22.161 19.178 22.075 19.2462 21.9904C19.356 21.8524 19.4361 21.6981 19.5044 21.5364C19.5815 21.351 19.6661 21.1685 19.7061 20.9712C19.7625 20.6982 19.8782 20.4534 20.0489 20.2338C20.0741 20.2012 20.0993 20.1671 20.1082 20.1255C20.1141 20.1196 20.1201 20.1151 20.1245 20.1092C20.1319 20.0869 20.1408 20.0647 20.1483 20.0424C20.1972 19.8955 20.2091 19.7472 20.1453 19.6003Z" fill="#93D500"/>
  <path fill-rule="evenodd" clip-rule="evenodd" d="M20.9494 19.9831C20.9583 19.9786 20.9687 19.9742 20.9761 19.9682C21.0562 19.9074 21.1378 19.9 21.2209 19.9623C21.301 20.0736 21.2832 20.1893 21.2491 20.3124C21.1987 20.4949 21.0993 20.6477 20.9969 20.8035C20.9034 20.9459 20.8025 21.0809 20.6942 21.2115C20.6245 21.2961 20.5384 21.3569 20.4316 21.3866C20.3619 21.4059 20.2951 21.4029 20.2447 21.345C20.1957 21.2887 20.1779 21.2219 20.2165 21.1492C20.261 21.0676 20.261 20.9741 20.2907 20.8866C20.3411 20.7353 20.4049 20.5913 20.4939 20.4578C20.5459 20.3792 20.5993 20.302 20.6616 20.2323C20.7224 20.1641 20.7936 20.1077 20.8693 20.0558C20.9004 20.0365 20.9361 20.0216 20.9494 19.9831Z" fill="#93D500"/>
  <path d="M2.44868 26.8551C1.54367 26.8551 0.858234 26.6162 0.444304 26.1207C-0.309376 25.2172 -0.101668 23.5911 1.04814 21.4206C2.90712 17.9089 7.01526 13.3111 12.0388 9.11839C16.3873 5.48946 20.9643 2.55188 24.5932 1.06233C27.7637 -0.240294 29.9239 -0.347113 30.8422 0.753735C31.8793 1.99553 31.0915 4.57554 28.6257 8.01606C28.5574 8.11101 28.4269 8.13178 28.3319 8.06502C28.237 7.99677 28.2162 7.86621 28.283 7.77126C30.593 4.54884 31.4075 2.089 30.5188 1.02375C29.7414 0.0920404 27.694 0.244851 24.7534 1.45252C21.1631 2.92724 16.6262 5.83959 12.3088 9.44331C7.32534 13.6019 3.25429 18.1536 1.42053 21.6194C0.373093 23.5985 0.14016 25.1029 0.767732 25.8536C2.30476 27.6963 8.54785 25.2661 15.6114 20.0749C15.7048 20.0067 15.8369 20.026 15.9051 20.1194C15.9734 20.2129 15.9541 20.345 15.8606 20.4132C10.2763 24.5139 5.28388 26.8551 2.44868 26.8551Z" fill="#373A36"/>
  <path d="M33.67 28.8106L17.3784 25.1238C12.5225 24.0259 9.47661 19.1982 10.5745 14.3408C11.6739 9.48491 16.5016 6.43903 21.3575 7.5384C26.2133 8.63628 29.2592 13.464 28.1613 18.3214C27.6109 20.753 26.1258 22.7277 24.1704 23.9591C24.1704 23.9591 24.1645 23.9636 24.163 23.9651C24.1066 24.0066 24.068 24.0734 24.068 24.149C24.068 24.2544 24.1407 24.3434 24.2401 24.3671L31.4876 26.0065C31.6612 26.0466 31.8407 25.9798 31.9461 25.8389C31.9475 25.8374 31.9461 25.8389 31.9475 25.8374C33.943 23.1965 35.1418 19.8999 35.1418 16.3348C35.1418 7.93897 28.5812 1.07574 20.3071 0.589113C20.2329 0.584662 19.7848 0.566858 19.6335 0.565374C15.9704 0.507513 12.2569 1.55792 9.02559 3.82044C0.868642 9.53238 -1.11348 20.7753 4.59847 28.9322L19.0935 49.6332C19.1543 49.7178 19.2537 49.7727 19.3664 49.7727C19.4792 49.7727 19.5801 49.7178 19.6409 49.6317C19.6409 49.6317 33.8748 29.3328 33.8763 29.3313C33.9119 29.2764 33.9341 29.2126 33.9341 29.1414C33.9312 28.9797 33.8199 28.8447 33.67 28.8106Z" fill="#FFC629"/>
  <path d="M28.4536 8.1036C28.4106 8.1036 28.369 8.09024 28.3319 8.06354C28.237 7.99529 28.2162 7.86473 28.283 7.76978C30.593 4.54736 31.409 2.08751 30.5188 1.02227C29.7414 0.0905553 27.694 0.243366 24.7534 1.45103C24.6451 1.49554 24.5235 1.44362 24.479 1.3368C24.4345 1.22998 24.4864 1.10683 24.5932 1.06233C27.7637 -0.240294 29.9239 -0.347113 30.8422 0.753735C31.8793 1.99553 31.0915 4.57554 28.6257 8.01606C28.5827 8.07244 28.5189 8.1036 28.4536 8.1036Z" fill="#373A36"/>
  <path d="M2.44868 26.8551C1.54367 26.8551 0.858234 26.6162 0.444304 26.1207C-0.309376 25.2172 -0.101668 23.5911 1.04814 21.4206C1.10303 21.3182 1.23063 21.2782 1.333 21.333C1.43537 21.3879 1.47542 21.514 1.42053 21.6179C0.373093 23.597 0.14016 25.1014 0.767732 25.8522C2.30476 27.6948 8.54785 25.2646 15.6114 20.0735C15.7048 20.0052 15.8369 20.0245 15.9051 20.118C15.9734 20.2114 15.9541 20.3435 15.8606 20.4117C10.2763 24.5139 5.28388 26.8551 2.44868 26.8551Z" fill="#373A36"/>
  <path d="M17.7655 18.4238L17.3798 18.8155L17.4539 18.9016L17.9079 18.5885L17.7952 18.4565L17.7655 18.4238Z" fill="#373A36"/>
  <path d="M19.8381 17.4536L20.4642 17.9551L21.1259 19.0307L21.5102 19.9268L21.7876 19.4372L21.0161 16.51C21.3796 16.2178 21.6971 15.9641 21.89 15.8098C22.6229 15.2223 22.5161 14.8395 22.5161 14.8395C22.5161 14.8395 22.1659 14.6525 21.433 15.2401C21.2416 15.3944 20.9241 15.6481 20.5592 15.9403L17.8694 14.5502L17.3308 14.7134L18.1216 15.2831L19.0266 16.1629L19.3812 16.8824C18.7017 17.4269 18.132 17.8839 18.132 17.8839C18.132 17.8839 18.0622 17.9492 17.9747 18.0486L16.9154 17.8141L16.4733 18.0767L17.629 18.6776C17.626 18.7043 17.626 18.731 17.6275 18.7562C17.6527 18.7637 17.678 18.7696 17.7047 18.7726L18.04 20.0322L18.3916 19.6583L18.3931 18.5723C18.5103 18.5085 18.5889 18.4536 18.5889 18.4536C18.5889 18.4536 19.1586 17.9981 19.8381 17.4536Z" fill="#373A36"/>
  <path d="M26.9448 9.99375C26.8973 9.99375 26.8498 9.97743 26.8098 9.94479C26.7207 9.8706 26.7089 9.73708 26.7845 9.64806C26.838 9.58427 26.8899 9.52195 26.9418 9.45816L27.0546 9.32167C27.1287 9.23265 27.2608 9.2193 27.3513 9.29199C27.4403 9.36617 27.4537 9.49822 27.381 9.58872L27.2667 9.72669C27.2148 9.79049 27.1614 9.85429 27.1065 9.91808C27.0649 9.96704 27.0056 9.99375 26.9448 9.99375Z" fill="#373A36"/>
  <path d="M27.6717 9.10211C27.6257 9.10211 27.5797 9.08728 27.5411 9.05612C27.4506 8.98342 27.4343 8.85138 27.507 8.76088C27.602 8.64071 27.6954 8.52202 27.7874 8.40333C27.8586 8.31134 27.9907 8.29502 28.0827 8.36475C28.1746 8.43597 28.191 8.56801 28.1212 8.66C28.0293 8.78017 27.9343 8.90034 27.8379 9.02199C27.7948 9.0754 27.734 9.10211 27.6717 9.10211Z" fill="#373A36"/>
  <path d="M50.0967 33.1382C51.6085 33.1382 52.8281 33.7094 53.7523 34.8518C53.7954 34.8948 53.8147 34.9467 53.8102 35.0061C53.8043 35.0654 53.7746 35.1129 53.7197 35.1455L53.2301 35.5372C53.1218 35.6247 53.0239 35.6129 52.9364 35.5046C52.2183 34.5803 51.2717 34.1174 50.0967 34.1174C49.0849 34.1174 48.2466 34.4601 47.5834 35.1455C46.9203 35.831 46.5879 36.6855 46.5879 37.7077C46.5879 38.73 46.9203 39.5875 47.5834 40.2789C48.2466 40.9702 49.0849 41.3159 50.0967 41.3159C51.2821 41.3159 52.2346 40.859 52.9527 39.945C53.0402 39.8367 53.1381 39.8249 53.2464 39.9124L53.7197 40.3041C53.8399 40.3916 53.8503 40.4895 53.7523 40.5978C52.8384 41.7298 51.6204 42.2951 50.0967 42.2951C48.7807 42.2951 47.6843 41.8619 46.8075 40.9969C45.9322 40.132 45.4945 39.0356 45.4945 37.7077C45.4945 36.4021 45.9381 35.3147 46.8238 34.4438C47.711 33.5744 48.8015 33.1382 50.0967 33.1382Z" fill="#373A36"/>
  <path d="M58.8442 33.2688H59.497C59.638 33.2688 59.7092 33.3445 59.7092 33.4973V37.7078L59.6276 40.5801L59.7418 40.6127L63.2506 35.9942L65.2416 33.4483C65.3618 33.3281 65.4805 33.2688 65.6007 33.2688H66.3024C66.4433 33.2688 66.5146 33.3445 66.5146 33.4973V41.951C66.5146 42.0919 66.4433 42.1631 66.3024 42.1631H65.6496C65.5087 42.1631 65.4375 42.0919 65.4375 41.951V37.7404L65.5191 34.8518L65.3885 34.8192L62.5652 38.5727L59.8561 42.0326C59.7908 42.1201 59.6988 42.1631 59.5786 42.1631H58.8442C58.7033 42.1631 58.6321 42.0919 58.6321 41.951V33.4973C58.6321 33.3459 58.7018 33.2688 58.8442 33.2688Z" fill="#373A36"/>
  <path d="M80.2069 42.1631H79.5541C79.4131 42.1631 79.3419 42.0919 79.3419 41.951V34.248H75.2456L74.4786 40.3516C74.3154 41.6246 73.6463 42.261 72.4713 42.261C71.8615 42.261 71.3615 42.0548 70.9698 41.6409C70.8942 41.543 70.8942 41.4554 70.9698 41.3798L71.4268 40.8902C71.5025 40.8145 71.5796 40.8145 71.6553 40.8902C71.8837 41.1409 72.1508 41.2655 72.4549 41.2655C72.9994 41.2655 73.3199 40.9228 73.4178 40.2374L74.3317 33.4483C74.354 33.3281 74.4296 33.2688 74.5602 33.2688H80.2069C80.3478 33.2688 80.419 33.34 80.419 33.481V41.951C80.419 42.0934 80.3478 42.1631 80.2069 42.1631Z" fill="#373A36"/>
  <path d="M85.6414 41.951V33.481C85.6414 33.34 85.7126 33.2688 85.8535 33.2688H86.5226C86.6532 33.2688 86.7185 33.34 86.7185 33.481V35.8963H89.9498C90.886 35.8963 91.6693 36.196 92.2999 36.7939C92.9304 37.3918 93.2464 38.138 93.2464 39.0297C93.2464 39.9214 92.9304 40.6676 92.2999 41.2655C91.6693 41.8634 90.886 42.1631 89.9498 42.1631H85.8535C85.7111 42.1631 85.6414 42.0934 85.6414 41.951ZM86.7185 36.8755V41.1839H89.9335C90.6293 41.1839 91.1738 40.9821 91.5655 40.5801C91.9571 40.178 92.153 39.6602 92.153 39.0297C92.153 38.3992 91.9571 37.8814 91.5655 37.4793C91.1738 37.0773 90.6293 36.8755 89.9335 36.8755H86.7185V36.8755Z" fill="#373A36"/>
  <path d="M98.3545 33.2688H98.991C99.1438 33.2688 99.2194 33.34 99.2194 33.481V37.0387H104.768V33.481C104.768 33.34 104.844 33.2688 104.997 33.2688H105.617C105.77 33.2688 105.845 33.34 105.845 33.481V41.951C105.845 42.0919 105.77 42.1631 105.617 42.1631H104.997C104.844 42.1631 104.768 42.0919 104.768 41.951V38.0179H99.2194V41.951C99.2194 42.0919 99.1438 42.1631 98.991 42.1631H98.3545C98.2136 42.1631 98.1423 42.0919 98.1423 41.951V33.481C98.1423 33.34 98.2121 33.2688 98.3545 33.2688Z" fill="#373A36"/>
  <path d="M111.28 33.2688H111.933C112.074 33.2688 112.145 33.34 112.145 33.481V41.951C112.145 42.0919 112.074 42.1631 111.933 42.1631H111.28C111.139 42.1631 111.068 42.0919 111.068 41.951V33.481C111.066 33.34 111.137 33.2688 111.28 33.2688Z" fill="#373A36"/>
  <path d="M124.856 33.2688H128.936C129.883 33.2688 130.669 33.5685 131.294 34.1664C131.92 34.7643 132.233 35.5046 132.233 36.3859C132.233 37.2775 131.92 38.0208 131.294 38.6143C130.668 39.2077 129.883 39.5045 128.936 39.5045H125.721V41.9524C125.721 42.0934 125.65 42.1646 125.509 42.1646H124.856C124.715 42.1646 124.644 42.0934 124.644 41.9524V33.4824C124.644 33.34 124.715 33.2688 124.856 33.2688ZM125.721 38.5238H128.936C129.632 38.5238 130.177 38.3279 130.568 37.9363C130.96 37.5446 131.156 37.0283 131.156 36.3859C131.156 35.7554 130.96 35.2405 130.568 34.8444C130.177 34.4468 129.632 34.2495 128.936 34.2495H125.721V38.5238Z" fill="#373A36"/>
  <path d="M139.789 33.2688H141.062C141.193 33.2688 141.28 33.3237 141.323 33.432L145.028 41.9346C145.05 41.9895 145.05 42.04 145.028 42.0889C145.006 42.1379 144.968 42.1631 144.914 42.1631H144.147C144.026 42.1631 143.945 42.1082 143.902 41.9999L143.167 40.27H137.668L136.917 41.9999C136.884 42.1082 136.803 42.1631 136.672 42.1631H135.889C135.748 42.1631 135.709 42.0874 135.774 41.9346L139.528 33.4483C139.583 33.3296 139.669 33.2688 139.789 33.2688ZM140.262 34.1827L138.076 39.2908H142.759L140.573 34.1827H140.262Z" fill="#373A36"/>
  <path d="M149.81 34.3132C150.789 33.5299 151.964 33.1382 153.335 33.1382C154.183 33.1382 154.958 33.34 155.659 33.742C156.361 34.1441 156.711 34.7435 156.711 35.5372C156.711 35.874 156.616 36.187 156.427 36.4763C156.237 36.7642 155.967 36.9852 155.618 37.138V37.2196C156.662 37.5564 157.185 38.2804 157.185 39.3902C157.185 40.2937 156.806 41.0029 156.05 41.5206C155.293 42.0369 154.361 42.2951 153.252 42.2951C152.37 42.2951 151.627 42.1749 151.023 41.9361C150.419 41.6972 149.856 41.2996 149.335 40.7447C149.237 40.6468 149.237 40.5489 149.335 40.451L149.71 40.0103C149.808 39.9124 149.906 39.9065 150.004 39.994C150.483 40.4732 150.967 40.813 151.456 41.0147C151.946 41.2165 152.556 41.3174 153.284 41.3174C154.111 41.3174 154.789 41.1453 155.315 40.8041C155.843 40.4613 156.108 39.991 156.108 39.3917C156.108 38.8041 155.906 38.3798 155.504 38.1187C155.102 37.8576 154.584 37.727 153.953 37.727H152.077C151.936 37.727 151.864 37.6558 151.864 37.5149V36.96C151.864 36.8191 151.936 36.7478 152.077 36.7478H154.019C154.465 36.7478 154.848 36.6499 155.168 36.4541C155.489 36.2582 155.651 35.9541 155.651 35.5402C155.651 35.0832 155.422 34.7316 154.965 34.4883C154.508 34.2435 153.931 34.1203 153.235 34.1203C152.615 34.1203 152.096 34.1916 151.677 34.3325C151.259 34.4734 150.853 34.7182 150.461 35.0669C150.308 35.1752 150.2 35.1707 150.134 35.0506L149.808 34.6099C149.734 34.4883 149.734 34.3904 149.81 34.3132Z" fill="#373A36"/>
  <path d="M162.914 40.9969C162.033 40.132 161.592 39.0415 161.592 37.7255C161.592 36.4095 162.033 35.3161 162.914 34.4452C163.796 33.5743 164.883 33.1396 166.178 33.1396C167.494 33.1396 168.591 33.5729 169.467 34.4378C170.343 35.3028 170.782 36.3992 170.782 37.727C170.782 39.043 170.344 40.1334 169.467 40.9984C168.592 41.8633 167.496 42.2966 166.178 42.2966C164.883 42.2936 163.796 41.8619 162.914 40.9969ZM166.178 34.1173C165.156 34.1173 164.318 34.4601 163.665 35.1455C163.012 35.8309 162.686 36.6899 162.686 37.724C162.686 38.7462 163.012 39.6008 163.665 40.2863C164.318 40.9717 165.156 41.3144 166.178 41.3144C167.212 41.3144 168.055 40.9717 168.708 40.2863C169.361 39.6008 169.687 38.7462 169.687 37.724C169.687 36.6899 169.361 35.8309 168.708 35.1455C168.055 34.4601 167.212 34.1173 166.178 34.1173Z" fill="#373A36"/>
  <path d="M184.212 33.2688H185.403C185.544 33.2688 185.615 33.34 185.615 33.481V41.9346C185.615 42.0874 185.544 42.1631 185.403 42.1631H184.767C184.614 42.1631 184.538 42.0874 184.538 41.9346V37.7078L184.603 34.4275L184.522 34.4112L183.151 37.6588L181.16 41.951C181.095 42.0919 181.003 42.1631 180.883 42.1631H180.426C180.295 42.1631 180.197 42.0919 180.132 41.951L178.108 37.5446L176.754 34.4112L176.688 34.4275L176.754 37.5283V41.9346C176.754 42.0874 176.682 42.1631 176.541 42.1631H175.889C175.748 42.1631 175.677 42.0874 175.677 41.9346V33.481C175.677 33.34 175.748 33.2688 175.889 33.2688H177.096C177.237 33.2688 177.341 33.3445 177.406 33.4973L179.3 37.5609L180.638 40.727H180.736L182.27 37.1203L183.902 33.4973C183.967 33.3459 184.071 33.2688 184.212 33.2688Z" fill="#373A36"/>
  <path d="M15.7345 20.4518C15.6692 20.4518 15.6055 20.4221 15.5654 20.3657C15.4971 20.2723 15.5164 20.1402 15.6099 20.072C16.736 19.2441 17.868 18.3569 18.9762 17.4311C19.0653 17.357 19.1973 17.3688 19.273 17.4579C19.3471 17.5469 19.3353 17.6789 19.2463 17.7546C18.1321 18.6848 16.9912 19.5794 15.8591 20.4117C15.8206 20.4399 15.7775 20.4518 15.7345 20.4518Z" fill="#373A36"/>
  <path d="M44.8209 10.2802H48.0552C48.2288 10.2802 48.3445 10.338 48.4023 10.4538L53.2241 18.6819H53.4556L57.5548 10.568C57.6319 10.3751 57.7951 10.2787 58.0459 10.2787H60.9909C61.1259 10.2787 61.2223 10.3321 61.2802 10.4374C61.338 10.5428 61.338 10.6451 61.2802 10.7401L52.7924 25.7543C52.6959 25.9279 52.5327 26.014 52.3013 26.014H49.4112C49.1026 26.014 49.0255 25.8701 49.1798 25.5808L51.4601 21.6833L44.6458 10.654C44.5138 10.4063 44.5701 10.2802 44.8209 10.2802Z" fill="#373A36"/>
  <path d="M64.0501 10.2803H66.5916C66.8616 10.2803 66.9951 10.4153 66.9951 10.6838V16.921L73.4919 10.5117C73.6848 10.3574 73.934 10.2803 74.2426 10.2803H77.7647C77.8998 10.2803 77.9814 10.3292 78.0095 10.4242C78.0377 10.5206 78.0051 10.6171 77.9087 10.7135L71.0083 17.1806L78.3419 25.5823C78.4383 25.6788 78.4665 25.7752 78.4279 25.8717C78.3894 25.9681 78.3018 26.0156 78.1683 26.0156H74.704C74.3954 26.0156 74.1551 25.9191 73.9815 25.7263L68.6983 19.1434L66.9951 20.4713V25.6105C66.9951 25.8806 66.8601 26.0141 66.5916 26.0141H64.0501C63.7801 26.0141 63.6466 25.8791 63.6466 25.6105V10.6853C63.6466 10.4153 63.7801 10.2803 64.0501 10.2803Z" fill="#373A36"/>
  <path d="M81.0272 10.2803H88.159C89.8919 10.2803 91.3443 10.8337 92.5193 11.9404C93.6929 13.0472 94.2804 14.4092 94.2804 16.0263C94.2804 17.7014 93.6973 19.0871 92.5342 20.1834C91.3695 21.2813 89.9111 21.8288 88.1605 21.8288H83.9737V25.6105C83.9737 25.8806 83.8387 26.0141 83.5701 26.0141H81.0272C80.7572 26.0141 80.6237 25.8791 80.6237 25.6105V10.6853C80.6222 10.4153 80.7572 10.2803 81.0272 10.2803ZM83.9722 18.6538H88.159C89.0254 18.6538 89.7034 18.4135 90.1945 17.9313C90.6856 17.4506 90.9304 16.8156 90.9304 16.0263C90.9304 15.2563 90.6856 14.6362 90.1945 14.1644C89.7034 13.6926 89.0254 13.4567 88.159 13.4567H83.9722V18.6538Z" fill="#373A36"/>
  <path d="M97.4256 10.2803H110.302C110.572 10.2803 110.706 10.4153 110.706 10.6838V25.612C110.706 25.882 110.571 26.0156 110.302 26.0156H107.761C107.491 26.0156 107.357 25.8806 107.357 25.612V13.4285H100.371V25.612C100.371 25.882 100.236 26.0156 99.9671 26.0156H97.4271C97.1571 26.0156 97.0236 25.8806 97.0236 25.612V10.6853C97.0221 10.4153 97.1571 10.2803 97.4256 10.2803Z" fill="#373A36"/>
  <path d="M113.45 18.1627C113.45 15.872 114.259 13.9478 115.876 12.3885C117.493 10.8292 119.446 10.0503 121.738 10.0503C124.029 10.0503 125.977 10.8292 127.585 12.3885C129.192 13.9478 129.996 15.872 129.996 18.1627C129.996 20.4534 129.192 22.3733 127.585 23.9222C125.978 25.4711 124.029 26.247 121.738 26.247C119.428 26.247 117.469 25.477 115.863 23.937C114.254 22.397 113.45 20.4727 113.45 18.1627ZM121.736 13.1971C120.293 13.1971 119.113 13.6585 118.199 14.5828C117.285 15.5071 116.829 16.6999 116.829 18.1627C116.829 19.6063 117.285 20.7902 118.199 21.7145C119.113 22.6388 120.293 23.1002 121.736 23.1002C123.161 23.1002 124.33 22.6344 125.244 21.6997C126.158 20.7665 126.614 19.587 126.614 18.1627C126.614 16.6999 126.158 15.5071 125.244 14.5828C124.33 13.6585 123.161 13.1971 121.736 13.1971Z" fill="#373A36"/>
  <path d="M136.028 22.8688H140.966V10.6853C140.966 10.4153 141.101 10.2817 141.369 10.2817H143.853C144.123 10.2817 144.256 10.4167 144.256 10.6853V22.8688H149.194V10.6853C149.194 10.4153 149.329 10.2817 149.597 10.2817H152.081C152.351 10.2817 152.484 10.4167 152.484 10.6853V25.612C152.484 25.882 152.349 26.0155 152.081 26.0155H133.141C132.871 26.0155 132.737 25.8805 132.737 25.612V10.6853C132.737 10.4153 132.872 10.2817 133.141 10.2817H135.625C135.893 10.2817 136.028 10.4167 136.028 10.6853V22.8688Z" fill="#373A36"/>
  <path d="M155.055 10.2803H168.453C168.721 10.2803 168.856 10.4153 168.856 10.6838V13.0517C168.856 13.3217 168.721 13.4552 168.453 13.4552H163.429V25.6105C163.429 25.8806 163.294 26.0141 163.025 26.0141H160.486C160.216 26.0141 160.082 25.8791 160.082 25.6105V13.4552H155.058C154.788 13.4552 154.655 13.3202 154.655 13.0517V10.6838C154.65 10.4153 154.785 10.2803 155.055 10.2803Z" fill="#373A36"/>
  <path d="M182.311 25.612L181.215 22.8985H173.362L172.264 25.6699C172.168 25.9013 172.004 26.0156 171.773 26.0156H168.914C168.625 26.0156 168.528 25.8806 168.625 25.612L175.439 10.5117C175.497 10.3574 175.621 10.2803 175.814 10.2803H179.105C179.298 10.2803 179.422 10.3574 179.48 10.5117L185.977 25.5542C186.016 25.6699 186.005 25.7752 185.947 25.8717C185.89 25.9681 185.793 26.0156 185.658 26.0156H182.915C182.629 26.0156 182.425 25.8806 182.311 25.612ZM177.2 13.3988L174.572 19.866H180.057L177.518 13.3988H177.2V13.3988Z" fill="#373A36"/>
</svg>
