<svg xmlns="http://www.w3.org/2000/svg" width="186" height="50" viewBox="0 0 186 50" fill="none">
  <path d="M23.5028 12.2873C21.7361 11.4047 19.8654 12.1256 19.3818 13.8746C18.8982 12.1256 17.0276 11.4032 15.2608 12.2873C13.2449 13.296 13.0238 15.9959 14.3292 18.0297C15.6258 20.0486 19.3818 21.8688 19.3818 21.8688C19.3818 21.8688 23.1379 20.0501 24.4344 18.0297C25.7398 15.9959 25.5188 13.296 23.5028 12.2873Z" fill="#36B0C9"/>
  <path fill-rule="evenodd" clip-rule="evenodd" d="M19.8105 15.4632C19.8105 15.3461 19.8076 15.2289 19.8105 15.1102C19.8135 15.0241 19.8254 14.9396 19.8535 14.858C19.8773 14.7868 19.9292 14.7482 19.9974 14.7423C20.1117 14.7334 20.2259 14.7141 20.3401 14.723C20.3757 14.726 20.4128 14.726 20.4484 14.7349C20.5463 14.7586 20.6056 14.7022 20.5923 14.6192C20.5878 14.591 20.5864 14.5598 20.5967 14.5346C20.616 14.4827 20.5997 14.4545 20.5537 14.4263C20.4009 14.3299 20.3164 14.1964 20.3045 14.0095C20.2986 13.916 20.2971 13.8285 20.3253 13.741C20.352 13.6564 20.3401 13.5704 20.3401 13.4843C20.3401 13.4146 20.3371 13.3449 20.3653 13.2767C20.3891 13.2218 20.4187 13.1773 20.4662 13.1417C20.5463 13.0808 20.6309 13.0245 20.6947 12.9414C20.7303 12.8939 20.7851 12.8732 20.846 12.8746C21.0002 12.8791 21.1516 12.8509 21.3014 12.8227C21.3325 12.8168 21.3637 12.8123 21.3948 12.8123C21.4215 12.8123 21.4453 12.8079 21.469 12.7916C21.4927 12.7738 21.5194 12.7664 21.5491 12.7634C21.6084 12.7575 21.6233 12.7397 21.6263 12.6788C21.6277 12.6521 21.6292 12.6269 21.6352 12.6017C21.647 12.5438 21.6426 12.5335 21.5877 12.5127C21.4898 12.4756 21.3889 12.4548 21.2865 12.4355C21.113 12.4044 20.9587 12.4697 20.8059 12.5335C20.7095 12.575 20.6175 12.621 20.5152 12.6477C20.4469 12.6655 20.3846 12.6996 20.3253 12.7397C20.2793 12.7708 20.2333 12.799 20.1829 12.8212C20.0271 12.888 19.9084 12.8227 19.8684 12.6714C19.8209 12.4904 19.8817 12.3154 20.0316 12.2012C20.0879 12.1581 20.1398 12.1107 20.1888 12.0602C20.2481 12.0009 20.3179 11.9564 20.3861 11.9074C20.5374 11.7992 20.6976 11.7101 20.8712 11.6419C20.9187 11.6226 20.9646 11.5944 21.0077 11.5648C21.1427 11.4743 21.294 11.4446 21.4512 11.4327C21.5951 11.4224 21.7375 11.4357 21.877 11.4713C21.917 11.4817 21.96 11.4817 22.0001 11.4876C22.0817 11.4995 22.1484 11.5336 22.2092 11.5841C22.2493 11.6182 22.2953 11.6404 22.3487 11.6508C22.4125 11.6642 22.4763 11.6805 22.5356 11.7072C22.5623 11.719 22.5846 11.7205 22.6038 11.6953C22.6513 11.6345 22.7181 11.6078 22.7893 11.587C22.816 11.5781 22.8456 11.5722 22.8694 11.5574C22.9643 11.498 23.0682 11.4876 23.1779 11.4891C23.2654 11.4906 23.3545 11.4758 23.4405 11.4535C23.5206 11.4327 23.5874 11.3882 23.6511 11.3378C23.7505 11.2592 23.8514 11.1791 23.9597 11.1108C24.0606 11.1717 24.1481 11.2503 24.2371 11.3259C25.1791 12.127 25.8437 13.1164 26.2412 14.2869C26.2575 14.3329 26.2635 14.3833 26.2917 14.4263C26.3391 14.4901 26.3451 14.5672 26.3569 14.6429C26.3584 14.7141 26.3866 14.7809 26.4 14.8491C26.4237 14.9663 26.4578 15.082 26.4682 15.2022C26.3762 15.3461 26.2635 15.4707 26.1374 15.5849C25.9282 15.7748 25.6894 15.9261 25.4876 16.1249C25.412 16.199 25.3141 16.2198 25.2043 16.2064C25.0693 16.1901 24.9343 16.1827 24.8053 16.242C24.737 16.2732 24.6628 16.2969 24.5857 16.291C24.4819 16.2821 24.4136 16.334 24.3736 16.4201C24.3083 16.5551 24.2193 16.6708 24.1214 16.785C24.0265 16.8933 23.9805 17.0342 23.9211 17.1647C23.887 17.2389 23.8588 17.3146 23.8262 17.3887C23.7698 17.5178 23.6823 17.6172 23.5518 17.675C23.4108 17.7374 23.2654 17.6973 23.1942 17.5608C23.0192 17.23 22.8976 16.8829 22.8931 16.5017C22.8916 16.4334 22.899 16.3652 22.8857 16.2984C22.8679 16.2064 22.8427 16.1827 22.7492 16.1827C22.6335 16.1842 22.5208 16.1679 22.4065 16.153C22.2982 16.1397 22.2048 16.0982 22.1336 16.0136C22.0802 15.9513 22.0179 15.9261 21.9348 15.929C21.7746 15.9335 21.7167 15.8875 21.6693 15.7332C21.6515 15.6754 21.6441 15.616 21.6352 15.5567C21.6188 15.4351 21.5892 15.4113 21.466 15.4173C21.4557 15.4173 21.4453 15.4187 21.4349 15.4173C21.2821 15.3802 21.1278 15.4173 20.9765 15.4247C20.7614 15.4351 20.5463 15.4529 20.3297 15.4618C20.1918 15.4677 20.0553 15.4885 19.9173 15.4796C19.8788 15.484 19.8417 15.4914 19.8105 15.4632Z" fill="#93D500"/>
  <path fill-rule="evenodd" clip-rule="evenodd" d="M16.5425 11.1168C16.5707 11.2503 16.6004 11.3838 16.6286 11.5174C16.6627 11.685 16.6834 11.8541 16.6656 12.0232C16.6508 12.1686 16.6078 12.3095 16.5425 12.443C16.5292 12.4697 16.5217 12.4979 16.5054 12.5216C16.4402 12.6151 16.4298 12.7175 16.4357 12.8243C16.4402 12.9147 16.4046 12.9993 16.3556 13.075C16.323 13.1254 16.2859 13.1773 16.2384 13.2174C16.1776 13.2693 16.1538 13.3346 16.1435 13.4087C16.1286 13.5155 16.1079 13.6209 16.0663 13.7217C16.0248 13.8256 15.9566 13.9116 15.8646 13.9799C15.7593 14.0585 15.6346 14.0748 15.5056 14.06C15.378 14.0466 15.249 14.0377 15.1258 14.0051C15.0932 13.9962 15.062 13.9873 15.0294 13.9784C14.9122 13.9443 14.8692 13.9606 14.8143 14.0659C14.7668 14.1564 14.7461 14.2558 14.7164 14.3522C14.6882 14.4442 14.6674 14.5376 14.6111 14.6207C14.5577 14.7008 14.4865 14.7601 14.396 14.8002C14.3129 14.8373 14.2283 14.8729 14.1527 14.9248C14.1037 14.9589 14.0934 14.996 14.1008 15.0479C14.1156 15.1547 14.1423 15.2586 14.1735 15.3624C14.1987 15.4455 14.1942 15.5271 14.1631 15.6087C14.129 15.6992 14.0963 15.7897 14.0503 15.8757C14.0103 15.9484 13.9435 15.984 13.8575 15.9869C13.7774 15.9899 13.6973 15.984 13.6216 15.9588C13.5148 15.9246 13.4362 15.8564 13.3828 15.7644C13.3531 15.714 13.3279 15.6621 13.3027 15.6087C13.2537 15.5063 13.2033 15.4025 13.1321 15.3105C13.0104 15.1547 12.914 14.9856 12.8072 14.821C12.8428 14.6949 12.5372 14.0822 12.5906 13.9635C12.9585 13.1536 13.1469 12.7857 13.8412 12.1908C14.1215 11.9505 14.7846 11.5871 15.1036 11.3898C15.4477 11.1762 16.1301 11.2652 16.5143 11.1183C16.5217 11.1198 16.5321 11.1183 16.5425 11.1168Z" fill="#93D500"/>
  <path fill-rule="evenodd" clip-rule="evenodd" d="M22.8042 20.5218C22.6988 20.4506 22.598 20.3734 22.5119 20.2785C22.3532 20.1049 22.3146 19.9062 22.3799 19.6836C22.4348 19.4967 22.5475 19.3499 22.7003 19.2327C22.8116 19.1466 22.9228 19.0591 23.04 18.9835C23.2136 18.8707 23.4005 18.798 23.6037 18.7639C23.8188 18.7283 24.0339 18.7239 24.2505 18.7387C24.3647 18.7461 24.479 18.7446 24.5932 18.7387C24.6288 18.7372 24.6659 18.7313 24.7015 18.7417C24.5546 18.9612 24.3855 19.163 24.209 19.3588C23.8144 19.7949 23.3679 20.1702 22.8709 20.4847C22.8501 20.498 22.8294 20.5158 22.8042 20.5218Z" fill="#93D500"/>
  <path fill-rule="evenodd" clip-rule="evenodd" d="M14.5962 17.73C14.5339 17.7122 14.4701 17.6989 14.4049 17.687C14.3589 17.6796 14.3129 17.6707 14.2684 17.6529C14.2358 17.6395 14.2135 17.6173 14.1987 17.5832C14.1705 17.5149 14.1586 17.4437 14.1527 17.371C14.1468 17.2954 14.1497 17.2197 14.1349 17.1456C14.1052 16.9972 14.0385 16.88 13.8872 16.8192C13.7166 16.7524 13.54 16.7287 13.3591 16.7198C13.3264 16.7183 13.2997 16.7094 13.2715 16.6946C13.1454 16.6278 13.0416 16.5344 12.9481 16.4276C12.8013 16.2599 12.6411 16.1086 12.466 15.9707C12.4111 15.9277 12.3592 15.8802 12.3058 15.8342C12.2999 15.8312 12.2954 15.8327 12.2939 15.8401C12.3355 16.0701 12.377 16.3 12.4393 16.527C12.4838 16.6872 12.5254 16.8489 12.5877 17.0031C12.6648 17.2346 12.7568 17.46 12.8621 17.6796C12.8947 17.7463 12.92 17.819 12.9659 17.8784C13.0475 18.0134 13.1276 18.1484 13.2122 18.2819C13.3635 18.5207 13.5237 18.7536 13.6899 18.9835C13.7002 18.9984 13.7091 19.0147 13.721 19.028C13.902 19.2506 14.0993 19.4597 14.3099 19.654C14.4093 19.746 14.5072 19.8395 14.617 19.9181C14.6081 19.8988 14.6037 19.8766 14.5903 19.8617C14.5339 19.795 14.531 19.7193 14.5458 19.6407C14.5547 19.5977 14.5651 19.5547 14.5829 19.5131C14.6155 19.436 14.6556 19.3633 14.6912 19.2891C14.8084 19.0473 14.8558 18.7862 14.8929 18.5222C14.9122 18.3827 14.9092 18.2433 14.9092 18.1039C14.9063 18.0994 14.9033 18.095 14.9003 18.089C14.8825 17.8991 14.7787 17.782 14.5962 17.73Z" fill="#93D500"/>
  <path fill-rule="evenodd" clip-rule="evenodd" d="M19.1193 13.0141C18.7425 13.0348 18.382 12.9622 18.0349 12.8212C17.8465 12.7441 17.6877 12.6239 17.5572 12.4652C17.4979 12.3925 17.4252 12.3406 17.3258 12.3332C17.2813 12.3302 17.2383 12.3183 17.1967 12.305C17.0736 12.2649 17.0054 12.1745 16.9935 12.0454C16.9787 11.8956 17.038 11.7724 17.1166 11.6523C17.1789 11.5573 17.2575 11.4772 17.3302 11.3942C17.4489 11.455 17.5557 11.5336 17.664 11.6093C17.9251 11.7947 18.1743 11.9964 18.4072 12.2175C18.649 12.4474 18.873 12.6937 19.0792 12.9562C19.094 12.974 19.1059 12.9948 19.1193 13.0141Z" fill="#93D500"/>
  <path fill-rule="evenodd" clip-rule="evenodd" d="M20.1443 19.5976C20.0983 19.4938 20.0389 19.4003 19.9662 19.3143C19.8743 19.2045 19.8075 19.0873 19.7882 18.9405C19.7734 18.8292 19.7927 18.7224 19.8016 18.6141C19.8149 18.4376 19.8224 18.261 19.7942 18.0845C19.7778 17.9821 19.7541 17.8798 19.6903 17.7938C19.674 17.773 19.6725 17.7448 19.6651 17.7211C19.631 17.6083 19.6087 17.4926 19.499 17.417C19.4367 17.3725 19.3833 17.3116 19.3373 17.2478C19.3298 17.2375 19.318 17.2315 19.3076 17.2226C19.2705 17.2019 19.2423 17.23 19.2127 17.2404C18.8551 17.3725 18.5036 17.371 18.1609 17.1915C17.9562 17.0847 17.8078 16.9185 17.6758 16.7346C17.6565 16.7079 17.6447 16.6723 17.6031 16.6723C17.5957 16.6693 17.5883 16.6663 17.5809 16.6649C17.4429 16.6426 17.305 16.6129 17.1655 16.6011C17.0439 16.5907 16.9207 16.5848 16.7991 16.607C16.6092 16.6411 16.449 16.7361 16.3007 16.8533C16.1479 16.9734 16.0292 17.1188 15.9521 17.2983C15.8972 17.4288 15.8616 17.5638 15.8319 17.7018C15.8052 17.8234 15.7933 17.948 15.78 18.0726C15.7637 18.2106 15.7563 18.3486 15.7948 18.4836C15.8898 18.8069 16.0737 19.068 16.3437 19.2683C16.4357 19.3365 16.5247 19.4077 16.5974 19.4982C16.6982 19.6258 16.8095 19.7415 16.9504 19.8261C16.9949 19.8528 17.0468 19.8676 17.0854 19.9032C17.1136 19.9062 17.1358 19.9255 17.1625 19.9358C17.2753 20.0159 17.3361 20.1331 17.3806 20.2607C17.44 20.4298 17.4993 20.6004 17.5571 20.7695C17.5883 20.8615 17.6046 20.955 17.6016 21.0529C17.5987 21.1938 17.6016 21.3347 17.6002 21.4756C17.6002 21.6136 17.6194 21.7501 17.6491 21.8851C17.6951 22.0957 17.7678 22.296 17.8968 22.471C17.974 22.5749 18.0704 22.655 18.2054 22.6609C18.4442 22.6713 18.6534 22.5927 18.8373 22.4384C18.91 22.3776 18.9709 22.3064 19.0346 22.2381C19.1103 22.158 19.1771 22.072 19.2453 21.9874C19.3551 21.8495 19.4352 21.6952 19.5034 21.5335C19.5806 21.3481 19.6651 21.1656 19.7052 20.9683C19.7615 20.6954 19.8772 20.4506 20.0478 20.231C20.0731 20.1984 20.0983 20.1643 20.1072 20.1228C20.1131 20.1168 20.119 20.1124 20.1235 20.1064C20.1309 20.0842 20.1398 20.0619 20.1472 20.0397C20.1947 19.8928 20.208 19.7445 20.1443 19.5976Z" fill="#93D500"/>
  <path fill-rule="evenodd" clip-rule="evenodd" d="M20.9469 19.9804C20.9558 19.9759 20.9662 19.9715 20.9736 19.9655C21.0537 19.9047 21.1353 19.8973 21.2183 19.9596C21.2985 20.0709 21.2806 20.1866 21.2465 20.3097C21.1961 20.4922 21.0967 20.6449 20.9943 20.8007C20.9009 20.9431 20.8 21.0781 20.6917 21.2087C20.622 21.2932 20.536 21.354 20.4292 21.3837C20.3594 21.403 20.2927 21.4 20.2422 21.3422C20.1933 21.2858 20.1755 21.219 20.2141 21.1464C20.2586 21.0648 20.2586 20.9713 20.2882 20.8838C20.3387 20.7325 20.4025 20.5886 20.4915 20.4551C20.5434 20.3764 20.5968 20.2993 20.6591 20.2296C20.7199 20.1614 20.7911 20.105 20.8668 20.0531C20.8979 20.0338 20.935 20.0189 20.9469 19.9804Z" fill="#93D500"/>
  <path d="M2.45727 26.8681C1.54051 26.8681 0.861095 26.6174 0.444249 26.1175C-0.309337 25.214 -0.101655 23.5882 1.04801 21.4179C2.90676 17.9066 7.01588 13.3095 12.0373 9.11726C16.3853 5.48877 20.9602 2.55305 24.5902 1.06219C27.7603 -0.240264 29.9201 -0.34707 30.8384 0.753641C31.8753 1.99676 31.0876 4.57497 28.6221 8.01506C28.5539 8.11 28.4234 8.13077 28.3284 8.06402C28.2335 7.99578 28.2127 7.86524 28.2795 7.7703C30.5892 4.54827 31.4051 2.08874 30.515 1.02363C29.7377 0.092029 27.6905 0.244821 24.7504 1.45234C21.159 2.92688 16.6241 5.84035 12.3073 9.44213C7.32443 13.6002 3.25536 18.1514 1.42035 21.6167C0.356724 23.6253 0.131242 25.0879 0.767637 25.8504C2.30448 27.6929 8.54679 25.263 15.6094 20.0724C15.7029 20.0042 15.8349 20.0235 15.9031 20.1169C15.9714 20.2104 15.9521 20.3424 15.8586 20.4107C12.3933 22.9562 8.96956 24.9411 6.2163 25.9988C4.70765 26.5773 3.44524 26.8681 2.45727 26.8681Z" fill="#373A36"/>
  <path d="M33.6674 28.8069L17.3777 25.1206C12.5224 24.0228 9.47695 19.1957 10.5747 14.339C11.6739 9.48368 16.501 6.43818 21.3563 7.53741C26.2116 8.63515 29.2571 13.4623 28.1594 18.319C27.609 20.7504 26.1241 22.7248 24.1689 23.9561C24.1689 23.9561 24.163 23.9605 24.1615 23.962C24.1051 24.0036 24.0665 24.0703 24.0665 24.146C24.0665 24.2513 24.1392 24.3403 24.2386 24.364L31.4852 26.0032C31.6588 26.0433 31.8383 25.9765 31.9436 25.8356C31.9451 25.8341 31.9436 25.8356 31.9451 25.8341C33.9403 23.1936 35.1389 19.8974 35.1389 16.3327C35.1389 7.93794 28.5792 1.07555 20.306 0.588987C20.2319 0.584537 19.7839 0.566735 19.6326 0.565252C15.97 0.507398 12.2569 1.55767 9.02598 3.81991C0.870043 9.53115 -1.11183 20.7726 4.5994 28.9286L19.0926 49.627C19.1534 49.7115 19.2528 49.7664 19.3655 49.7664C19.4783 49.7664 19.5792 49.7115 19.64 49.6255C19.64 49.6255 33.8721 29.3291 33.8736 29.3276C33.9092 29.2727 33.9314 29.2075 33.9314 29.1377C33.9284 28.976 33.8172 28.8411 33.6674 28.8069Z" fill="#FFC629"/>
  <path d="M28.45 8.10257C28.407 8.10257 28.3655 8.08922 28.3284 8.064C28.2335 7.99576 28.2127 7.86522 28.2795 7.77028C30.5892 4.54825 31.4051 2.08872 30.515 1.02361C29.7377 0.0920116 27.6905 0.244803 24.7504 1.45232C24.6421 1.49682 24.5204 1.44491 24.4759 1.3381C24.4314 1.23129 24.4833 1.10816 24.5901 1.06366C27.7602 -0.238797 29.9201 -0.345607 30.8384 0.755104C31.8753 1.99822 31.0876 4.57644 28.6221 8.01653C28.5806 8.07142 28.5153 8.10257 28.45 8.10257Z" fill="#373A36"/>
  <path d="M2.45727 26.8681C1.54051 26.8681 0.861095 26.6174 0.444249 26.1175C-0.309337 25.2141 -0.101655 23.5882 1.04801 21.418C1.1029 21.3156 1.23047 21.277 1.33283 21.3304C1.43518 21.3853 1.47524 21.5114 1.42035 21.6153C0.356724 23.6238 0.131242 25.0865 0.767637 25.849C2.30448 27.6914 8.54679 25.2616 15.6094 20.071C15.7029 20.0028 15.8349 20.022 15.9031 20.1155C15.9714 20.209 15.9521 20.341 15.8586 20.4092C12.3933 22.9548 8.96956 24.9396 6.2163 25.9973C4.70765 26.5774 3.44524 26.8681 2.45727 26.8681Z" fill="#373A36"/>
  <path d="M17.7647 18.4214L17.379 18.813L17.4532 18.8991L17.9071 18.586L17.7929 18.454L17.7647 18.4214Z" fill="#373A36"/>
  <path d="M19.837 17.4512L20.463 17.9526L21.1246 19.0281L21.5088 19.9241L21.7862 19.4345L21.0148 16.5077C21.3783 16.2155 21.6957 15.9618 21.8886 15.8075C22.6214 15.2201 22.5146 14.8374 22.5146 14.8374C22.5146 14.8374 22.1645 14.6505 21.4317 15.2379C21.2403 15.3922 20.9228 15.6458 20.5579 15.9381L17.8684 14.5481L17.33 14.7113L18.1206 15.2809L19.0255 16.1606L19.3801 16.8801C18.7007 17.4245 18.131 17.8814 18.131 17.8814C18.131 17.8814 18.0613 17.9467 17.9738 18.046L16.9146 17.8117L16.4725 18.0742L17.6281 18.675C17.6252 18.7017 17.6252 18.7284 17.6266 18.7536C17.6519 18.7611 17.6771 18.767 17.7038 18.77L18.039 20.0294L18.3906 19.6556L18.3921 18.5697C18.5093 18.5059 18.5879 18.451 18.5879 18.451C18.5879 18.451 19.1576 17.9956 19.837 17.4512Z" fill="#373A36"/>
  <path d="M26.9429 9.99244C26.8955 9.99244 26.848 9.97612 26.8079 9.94349C26.7189 9.86932 26.7071 9.73581 26.7827 9.6468C26.8361 9.58301 26.888 9.52071 26.94 9.45692L27.0527 9.32045C27.1269 9.23144 27.2589 9.2166 27.3479 9.29078C27.4369 9.36495 27.4503 9.49698 27.3776 9.58598L27.2633 9.72542C27.2099 9.78921 27.158 9.853 27.1031 9.91679C27.0616 9.96574 27.0023 9.99244 26.9429 9.99244Z" fill="#373A36"/>
  <path d="M27.6683 9.10089C27.6223 9.10089 27.5763 9.08605 27.5377 9.0549C27.4472 8.98221 27.4309 8.85019 27.5036 8.7597C27.5985 8.63954 27.692 8.52086 27.784 8.40219C27.8552 8.31021 27.9872 8.29241 28.0792 8.3651C28.1711 8.43631 28.1875 8.56833 28.1162 8.6603C28.0243 8.78046 27.9293 8.90062 27.8329 9.02226C27.7929 9.07418 27.7306 9.10089 27.6683 9.10089Z" fill="#373A36"/>
  <path d="M48.6589 32.8298C49.9331 32.8298 50.9819 33.1948 51.8067 33.9261C51.8913 34.0106 51.8957 34.0952 51.8201 34.1798L51.4685 34.5877C51.3928 34.6723 51.3083 34.6767 51.2148 34.6011C50.5028 33.9736 49.6409 33.6591 48.6292 33.6591C47.214 33.6591 46.5079 34.0566 46.5079 34.8532C46.5079 35.2374 46.6874 35.5089 47.0493 35.6677C47.4098 35.8264 48.0017 35.9584 48.8265 36.0608C49.3694 36.1364 49.8248 36.2195 50.1898 36.3129C50.5547 36.4064 50.8988 36.5399 51.2222 36.7135C51.5456 36.887 51.7859 37.111 51.9462 37.3884C52.1049 37.6644 52.185 37.9996 52.185 38.3927C52.185 39.133 51.8646 39.7041 51.2222 40.1076C50.5799 40.5111 49.7685 40.7113 48.7849 40.7113C47.4083 40.7113 46.2512 40.2989 45.3137 39.4741C45.238 39.4 45.238 39.3154 45.3137 39.2205L45.6504 38.7562C45.735 38.6627 45.8196 38.6583 45.9041 38.7428C46.6903 39.4919 47.6561 39.8673 48.7983 39.8673C49.5949 39.8673 50.2061 39.7337 50.6318 39.4667C51.0576 39.1997 51.2712 38.8407 51.2712 38.3912C51.2712 37.9329 51.062 37.6021 50.6452 37.4003C50.2283 37.1986 49.5801 37.0472 48.6989 36.9434C48.3429 36.9063 48.0314 36.8618 47.7643 36.8099C47.4973 36.758 47.2184 36.6808 46.9277 36.5785C46.6369 36.4761 46.4025 36.353 46.2245 36.2136C46.0465 36.0726 45.8967 35.8857 45.7751 35.6513C45.6534 35.4169 45.5926 35.1499 45.5926 34.8503C45.5926 34.2421 45.8715 33.7525 46.4292 33.3817C46.9885 33.0153 47.7317 32.8298 48.6589 32.8298Z" fill="#373A36"/>
  <path d="M54.9263 32.9426H61.3615C61.492 32.9426 61.5588 33.0079 61.5588 33.1399V33.5894C61.5588 33.7199 61.4935 33.7867 61.3615 33.7867H58.6068V40.4058C58.6068 40.5363 58.5415 40.6031 58.4095 40.6031H57.8754C57.7449 40.6031 57.6781 40.5378 57.6781 40.4058V33.7867H54.9234C54.7913 33.7867 54.7261 33.7214 54.7261 33.5894V33.1399C54.729 33.0079 54.7943 32.9426 54.9263 32.9426Z" fill="#373A36"/>
  <path d="M64.7052 32.9426H68.218C69.0324 32.9426 69.7118 33.2007 70.2562 33.7155C70.7991 34.2302 71.0706 34.8681 71.0706 35.6262C71.0706 36.1884 70.9252 36.6853 70.6345 37.1155C70.3437 37.5472 69.9462 37.8647 69.4403 38.0709L70.7472 40.4028C70.7754 40.4592 70.7754 40.5067 70.7472 40.5438C70.719 40.5808 70.6775 40.6001 70.6211 40.6001H69.9462C69.8527 40.6001 69.7682 40.5438 69.6925 40.431L68.5681 38.2949C68.4924 38.3038 68.3767 38.3082 68.2165 38.3082H65.4484V40.4162C65.4484 40.5378 65.3876 40.5986 65.2659 40.5986H64.7037C64.5821 40.5986 64.5212 40.5378 64.5212 40.4162V33.1236C64.5227 33.0034 64.5835 32.9426 64.7052 32.9426ZM65.4499 37.4671H68.218C68.8262 37.4671 69.2994 37.2965 69.6376 36.9538C69.9744 36.6126 70.1435 36.1691 70.1435 35.6262C70.1435 35.0832 69.9729 34.6397 69.6302 34.2985C69.2875 33.9573 68.8173 33.7852 68.218 33.7852H65.4499V37.4671Z" fill="#373A36"/>
  <path d="M75.3147 39.5958C74.5552 38.8511 74.1769 37.9121 74.1769 36.7787C74.1769 35.6454 74.5566 34.7034 75.3147 33.9543C76.0727 33.2051 77.0103 32.8298 78.1243 32.8298C79.2577 32.8298 80.2011 33.2022 80.9562 33.9469C81.7098 34.6915 82.0881 35.635 82.0881 36.7787C82.0881 37.9121 81.7113 38.8511 80.9562 39.5958C80.2026 40.3405 79.2577 40.7128 78.1243 40.7128C77.0103 40.7128 76.0727 40.3405 75.3147 39.5958ZM78.1243 33.6724C77.2432 33.6724 76.5222 33.9676 75.96 34.558C75.3978 35.1484 75.1174 35.8887 75.1174 36.7787C75.1174 37.6599 75.3978 38.3942 75.96 38.9846C76.5222 39.575 77.2432 39.8702 78.1243 39.8702C79.0144 39.8702 79.7398 39.575 80.302 38.9846C80.8642 38.3942 81.1446 37.6599 81.1446 36.7787C81.1446 35.8887 80.8642 35.1484 80.302 34.558C79.7398 33.9676 79.0144 33.6724 78.1243 33.6724Z" fill="#373A36"/>
  <path d="M92.079 40.6001H91.4323C91.3195 40.6001 91.235 40.5586 91.1786 40.4741L88.5796 37.2001L86.2892 34.165L86.1913 34.1932L86.261 37.031V40.4177C86.261 40.5393 86.1957 40.6001 86.0637 40.6001H85.5163C85.3947 40.6001 85.3339 40.5349 85.3339 40.4028V33.1236C85.3339 33.002 85.3947 32.9412 85.5163 32.9412H86.1349C86.2655 32.9412 86.3693 32.9931 86.4435 33.0954L89.2249 36.5667L91.3047 39.3496L91.4026 39.3363L91.3329 36.4984V33.1266C91.3329 33.0049 91.3937 32.9441 91.5153 32.9441H92.0776C92.1992 32.9441 92.26 33.0049 92.26 33.1266V40.4192C92.2615 40.5393 92.2007 40.6001 92.079 40.6001Z" fill="#373A36"/>
  <path d="M101.971 36.4687H102.52C102.641 36.4687 102.702 36.5295 102.702 36.6512V40.4176C102.702 40.5393 102.641 40.6001 102.52 40.6001H102.155C102.024 40.6001 101.953 40.5393 101.944 40.4176L101.846 39.8139C101.21 40.4132 100.417 40.7128 99.471 40.7128C98.3466 40.7128 97.4061 40.3375 96.6466 39.5884C95.8871 38.8393 95.5088 37.9017 95.5088 36.7773C95.5088 35.635 95.8856 34.6901 96.6392 33.9454C97.3928 33.2007 98.3377 32.8284 99.471 32.8284C100.782 32.8284 101.831 33.3149 102.619 34.2896C102.684 34.383 102.675 34.4676 102.591 34.5432L102.198 34.88C102.104 34.9645 102.015 34.9556 101.931 34.8518C101.321 34.0656 100.502 33.671 99.471 33.671C98.6092 33.671 97.8927 33.9676 97.3215 34.5625C96.7504 35.1574 96.4641 35.8946 96.4641 36.7758C96.4641 37.657 96.7489 38.3913 97.3215 38.9817C97.8927 39.5721 98.6092 39.8673 99.471 39.8673C100.342 39.8673 101.11 39.5202 101.776 38.8274V36.6497C101.773 36.531 101.84 36.4687 101.971 36.4687Z" fill="#373A36"/>
  <path d="M111.02 32.9426H117.455C117.585 32.9426 117.652 33.0079 117.652 33.1399V33.5894C117.652 33.7199 117.587 33.7867 117.455 33.7867H114.7V40.4058C114.7 40.5363 114.635 40.6031 114.503 40.6031H113.969C113.837 40.6031 113.771 40.5378 113.771 40.4058V33.7867H111.017C110.886 33.7867 110.819 33.7214 110.819 33.5894V33.1399C110.824 33.0079 110.889 32.9426 111.02 32.9426Z" fill="#373A36"/>
  <path d="M121.052 39.5958C120.293 38.8511 119.914 37.9121 119.914 36.7787C119.914 35.6454 120.294 34.7034 121.052 33.9543C121.812 33.2051 122.748 32.8298 123.862 32.8298C124.995 32.8298 125.939 33.2022 126.694 33.9469C127.447 34.6915 127.824 35.635 127.824 36.7787C127.824 37.9121 127.447 38.8511 126.694 39.5958C125.94 40.3405 124.995 40.7128 123.862 40.7128C122.748 40.7128 121.812 40.3405 121.052 39.5958ZM123.863 33.6724C122.982 33.6724 122.261 33.9676 121.699 34.558C121.137 35.1484 120.856 35.8887 120.856 36.7787C120.856 37.6599 121.137 38.3942 121.699 38.9846C122.261 39.575 122.982 39.8702 123.863 39.8702C124.753 39.8702 125.479 39.575 126.041 38.9846C126.603 38.3942 126.883 37.6599 126.883 36.7787C126.883 35.8887 126.603 35.1484 126.041 34.558C125.479 33.9676 124.753 33.6724 123.863 33.6724Z" fill="#373A36"/>
  <path d="M137.254 36.4687H137.802C137.923 36.4687 137.984 36.5295 137.984 36.6512V40.4176C137.984 40.5393 137.923 40.6001 137.802 40.6001H137.437C137.306 40.6001 137.235 40.5393 137.226 40.4176L137.128 39.8139C136.492 40.4132 135.7 40.7128 134.753 40.7128C133.629 40.7128 132.688 40.3375 131.929 39.5884C131.169 38.8393 130.791 37.9017 130.791 36.7773C130.791 35.635 131.168 34.6901 131.921 33.9454C132.675 33.2007 133.62 32.8284 134.753 32.8284C136.065 32.8284 137.113 33.3149 137.901 34.2896C137.966 34.383 137.957 34.4676 137.873 34.5432L137.48 34.88C137.386 34.9645 137.297 34.9556 137.213 34.8518C136.603 34.0656 135.784 33.671 134.753 33.671C133.891 33.671 133.175 33.9676 132.604 34.5625C132.033 35.1574 131.746 35.8946 131.746 36.7758C131.746 37.657 132.033 38.3913 132.604 38.9817C133.175 39.5721 133.891 39.8673 134.753 39.8673C135.624 39.8673 136.392 39.5202 137.058 38.8274V36.6497C137.057 36.531 137.124 36.4687 137.254 36.4687Z" fill="#373A36"/>
  <path d="M141.555 32.9426H147.006C147.128 32.9426 147.189 33.0034 147.189 33.1251V33.6027C147.189 33.7244 147.128 33.7852 147.006 33.7852H142.299V36.1454H146.739C146.861 36.1454 146.922 36.2062 146.922 36.3278V36.8055C146.922 36.9271 146.861 36.988 146.739 36.988H142.299V39.7561H147.147C147.269 39.7561 147.33 39.8124 147.33 39.9252V40.4177C147.33 40.5393 147.269 40.6001 147.147 40.6001H141.555C141.433 40.6001 141.372 40.5393 141.372 40.4177V33.1251C141.371 33.0034 141.433 32.9426 141.555 32.9426Z" fill="#373A36"/>
  <path d="M150.35 32.9426H156.785C156.916 32.9426 156.982 33.0079 156.982 33.1399V33.5894C156.982 33.7199 156.917 33.7867 156.785 33.7867H154.03V40.4058C154.03 40.5363 153.965 40.6031 153.833 40.6031H153.299C153.167 40.6031 153.102 40.5378 153.102 40.4058V33.7867H150.347C150.216 33.7867 150.15 33.7214 150.15 33.5894V33.1399C150.154 33.0079 150.219 32.9426 150.35 32.9426Z" fill="#373A36"/>
  <path d="M160.13 32.9426H160.678C160.808 32.9426 160.875 33.0034 160.875 33.1251V36.1884H165.653V33.1251C165.653 33.0034 165.718 32.9426 165.85 32.9426H166.384C166.515 32.9426 166.582 33.0034 166.582 33.1251V40.4177C166.582 40.5393 166.516 40.6001 166.384 40.6001H165.85C165.72 40.6001 165.653 40.5393 165.653 40.4177V37.031H160.875V40.4177C160.875 40.5393 160.81 40.6001 160.678 40.6001H160.13C160.009 40.6001 159.948 40.5393 159.948 40.4177V33.1251C159.948 33.0034 160.009 32.9426 160.13 32.9426Z" fill="#373A36"/>
  <path d="M170.29 32.9426H175.742C175.864 32.9426 175.924 33.0034 175.924 33.1251V33.6027C175.924 33.7244 175.864 33.7852 175.742 33.7852H171.035V36.1454H175.475C175.597 36.1454 175.657 36.2062 175.657 36.3278V36.8055C175.657 36.9271 175.597 36.988 175.475 36.988H171.035V39.7561H175.883C176.005 39.7561 176.065 39.8124 176.065 39.9252V40.4177C176.065 40.5393 176.005 40.6001 175.883 40.6001H170.29C170.169 40.6001 170.108 40.5393 170.108 40.4177V33.1251C170.108 33.0034 170.169 32.9426 170.29 32.9426Z" fill="#373A36"/>
  <path d="M179.635 32.9426H183.147C183.962 32.9426 184.641 33.2007 185.186 33.7155C185.728 34.2302 186 34.8681 186 35.6262C186 36.1884 185.855 36.6853 185.564 37.1155C185.273 37.5472 184.875 37.8647 184.37 38.0709L185.677 40.4028C185.705 40.4592 185.705 40.5067 185.677 40.5438C185.648 40.5808 185.607 40.6001 185.55 40.6001H184.876C184.782 40.6001 184.697 40.5438 184.622 40.431L183.497 38.2949C183.422 38.3038 183.306 38.3082 183.146 38.3082H180.378V40.4162C180.378 40.5378 180.317 40.5986 180.195 40.5986H179.633C179.511 40.5986 179.451 40.5378 179.451 40.4162V33.1236C179.452 33.0034 179.513 32.9426 179.635 32.9426ZM180.379 37.4671H183.147C183.756 37.4671 184.229 37.2965 184.567 36.9538C184.904 36.6126 185.073 36.1691 185.073 35.6262C185.073 35.0832 184.902 34.6397 184.56 34.2985C184.217 33.9573 183.747 33.7852 183.147 33.7852H180.379V37.4671Z" fill="#373A36"/>
  <path d="M15.734 20.4507C15.6687 20.4507 15.605 20.421 15.5649 20.3646C15.4967 20.2712 15.5159 20.1392 15.6094 20.0709C16.7353 19.2432 17.8687 18.3546 18.9753 17.4304C19.0643 17.3562 19.1964 17.3681 19.272 17.4571C19.3462 17.5461 19.3343 17.6796 19.2453 17.7538C18.1312 18.6839 16.992 19.5769 15.8586 20.4106C15.8201 20.4373 15.777 20.4507 15.734 20.4507Z" fill="#373A36"/>
  <path d="M45.2068 18.7048V10.7892C45.2068 10.5355 45.3329 10.408 45.588 10.408H47.9823C48.236 10.408 48.3635 10.5355 48.3635 10.7892V18.6781C48.3635 19.8026 48.6676 20.7134 49.2744 21.4121C49.8811 22.1108 50.7385 22.4594 51.8452 22.4594C52.9325 22.4594 53.79 22.1197 54.416 21.4388C55.042 20.7594 55.355 19.8382 55.355 18.6781V10.7892C55.355 10.5355 55.4811 10.408 55.7362 10.408H58.1305C58.3842 10.408 58.5117 10.5355 58.5117 10.7892V18.7048C58.5117 20.663 57.9035 22.2769 56.6886 23.5468C55.4737 24.8166 53.8597 25.4515 51.8467 25.4515C49.8336 25.4515 48.2241 24.8166 47.0181 23.5468C45.8105 22.2769 45.2068 20.663 45.2068 18.7048Z" fill="#373A36"/>
  <path d="M62.0186 10.408H64.4128C64.6665 10.408 64.7941 10.5355 64.7941 10.7892V16.6651L70.9147 10.626C71.0957 10.4806 71.3316 10.408 71.6223 10.408H74.9408C75.0669 10.408 75.1455 10.4539 75.1722 10.5444C75.1989 10.6349 75.1678 10.7254 75.0773 10.8159L68.5754 16.9099L75.4852 24.8255C75.5757 24.916 75.6024 25.0065 75.5668 25.097C75.5297 25.1874 75.4481 25.2334 75.322 25.2334H72.057C71.7662 25.2334 71.5408 25.1429 71.3776 24.962L66.3992 18.7597L64.7941 20.0117V24.8537C64.7941 25.1073 64.6665 25.2349 64.4128 25.2349H62.0186C61.7649 25.2349 61.6373 25.1088 61.6373 24.8537V10.7892C61.6373 10.5355 61.7634 10.408 62.0186 10.408Z" fill="#373A36"/>
  <path d="M78.0131 10.408H84.7049C86.3544 10.408 87.7385 10.9242 88.8525 11.9582C89.9681 12.9921 90.5259 14.2797 90.5259 15.821C90.5259 16.7823 90.29 17.6664 89.8183 18.4734C89.3465 19.2804 88.7116 19.9109 87.9135 20.3648L90.2529 24.8537C90.3078 24.9442 90.3078 25.0302 90.2529 25.1118C90.198 25.1934 90.1164 25.2349 90.0082 25.2349H87.3424C87.1243 25.2349 86.9612 25.1444 86.8529 24.9634L85.0297 21.2638C84.9022 21.2816 84.7583 21.2905 84.5951 21.2905H80.7871V24.8537C80.7871 25.1073 80.6595 25.2349 80.4059 25.2349H78.0131C77.7594 25.2349 77.6318 25.1088 77.6318 24.8537V10.7892C77.6318 10.5355 77.7579 10.408 78.0131 10.408ZM80.7871 18.2969H84.7049C85.5386 18.2969 86.1913 18.0655 86.663 17.6026C87.1347 17.1398 87.3706 16.5464 87.3706 15.821C87.3706 15.1134 87.1347 14.5334 86.663 14.0795C86.1913 13.627 85.5386 13.4001 84.7049 13.4001H80.7871V18.2969Z" fill="#373A36"/>
  <path d="M93.7627 10.408H100.481C102.113 10.408 103.482 10.9301 104.589 11.9715C105.695 13.0144 106.249 14.2975 106.249 15.821C106.249 17.3994 105.7 18.7048 104.604 19.7388C103.506 20.7727 102.132 21.289 100.483 21.289H96.5382V24.8522C96.5382 25.1059 96.4107 25.2334 96.157 25.2334H93.7627C93.509 25.2334 93.3815 25.1073 93.3815 24.8522V10.7892C93.3815 10.5355 93.509 10.408 93.7627 10.408ZM96.5367 18.2969H100.481C101.297 18.2969 101.936 18.0699 102.399 17.6175C102.862 17.165 103.094 16.5657 103.094 15.8225C103.094 15.0971 102.862 14.5126 102.399 14.0676C101.936 13.6241 101.297 13.4015 100.481 13.4015H96.5367V18.2969Z" fill="#373A36"/>
  <path d="M108.017 17.8341C108.017 15.6757 108.778 13.8629 110.302 12.3943C111.825 10.9257 113.665 10.1914 115.823 10.1914C117.981 10.1914 119.816 10.9257 121.331 12.3943C122.846 13.8629 123.602 15.6772 123.602 17.8341C123.602 19.9925 122.844 21.8008 121.331 23.2605C119.816 24.7202 117.98 25.45 115.823 25.45C113.647 25.45 111.801 24.7246 110.287 23.2738C108.774 21.8245 108.017 20.0103 108.017 17.8341ZM115.824 13.1553C114.464 13.1553 113.353 13.59 112.493 14.4607C111.631 15.3315 111.201 16.456 111.201 17.8341C111.201 19.1944 111.631 20.3099 112.493 21.1792C113.353 22.05 114.464 22.4847 115.824 22.4847C117.165 22.4847 118.268 22.0456 119.13 21.1659C119.99 20.2862 120.422 19.1751 120.422 17.8341C120.422 16.456 119.99 15.3315 119.13 14.4607C118.268 13.59 117.165 13.1553 115.824 13.1553Z" fill="#373A36"/>
  <path d="M131.71 10.1899C134.14 10.1899 136.262 10.942 138.076 12.4477C138.275 12.5931 138.303 12.7563 138.157 12.9373L136.797 14.6239C136.634 14.8242 136.444 14.8331 136.226 14.6506C134.956 13.636 133.397 13.1271 131.547 13.1271C129.643 13.1271 128.692 13.5811 128.692 14.4875C128.692 14.9221 128.936 15.2588 129.426 15.4932C129.916 15.7291 130.768 15.9101 131.983 16.0377C136.354 16.4367 138.539 18.0151 138.539 20.7713C138.539 22.2221 137.931 23.3644 136.716 24.1995C135.501 25.0332 133.942 25.4501 132.037 25.4501C129.334 25.4501 127.067 24.6891 125.237 23.1656C125.056 23.0395 125.047 22.857 125.21 22.6211L126.489 20.9078C126.652 20.6897 126.833 20.663 127.033 20.8262C128.466 21.9506 130.151 22.5129 132.093 22.5129C134.305 22.5129 135.412 21.9506 135.412 20.8262C135.412 20.301 135.127 19.9065 134.554 19.6424C133.983 19.3798 133.008 19.184 131.63 19.0579C129.672 18.8948 128.171 18.4735 127.128 17.7926C126.085 17.1131 125.565 16.048 125.565 14.5958C125.565 13.2725 126.136 12.2059 127.278 11.3989C128.419 10.5949 129.896 10.1899 131.71 10.1899Z" fill="#373A36"/>
  <path d="M141.503 10.408H143.897C144.151 10.408 144.278 10.5355 144.278 10.7892V16.0391H151.025V10.7892C151.025 10.5355 151.151 10.408 151.406 10.408H153.8C154.054 10.408 154.182 10.5355 154.182 10.7892V24.8522C154.182 25.1059 154.054 25.2334 153.8 25.2334H151.406C151.152 25.2334 151.025 25.1073 151.025 24.8522V19.0312H144.278V24.8522C144.278 25.1059 144.151 25.2334 143.897 25.2334H141.503C141.249 25.2334 141.121 25.1073 141.121 24.8522V10.7892C141.121 10.5355 141.248 10.408 141.503 10.408Z" fill="#373A36"/>
  <path d="M156.6 10.408H169.221C169.474 10.408 169.602 10.5355 169.602 10.7892V13.0203C169.602 13.274 169.474 13.4015 169.221 13.4015H164.487V24.8537C164.487 25.1073 164.359 25.2349 164.106 25.2349H161.711C161.458 25.2349 161.33 25.1088 161.33 24.8537V13.4015H156.597C156.343 13.4015 156.215 13.2754 156.215 13.0203V10.7892C156.218 10.5355 156.346 10.408 156.6 10.408Z" fill="#373A36"/>
  <path d="M182.278 24.8522L181.244 22.2948H173.845L172.811 24.9056C172.72 25.1237 172.566 25.232 172.348 25.232H169.655C169.384 25.232 169.292 25.1059 169.384 24.8507L175.804 10.6246C175.859 10.4792 175.976 10.4065 176.157 10.4065H179.258C179.439 10.4065 179.557 10.4792 179.611 10.6246L185.731 24.7973C185.767 24.9056 185.758 25.0065 185.705 25.097C185.65 25.1875 185.559 25.2334 185.433 25.2334H182.849C182.578 25.2334 182.388 25.1059 182.278 24.8522ZM177.463 13.3452L174.987 19.4391H180.155L177.761 13.3452H177.463Z" fill="#373A36"/>
</svg>
